<svg xmlns="http://www.w3.org/2000/svg" viewBox="0 0 574.02 322.48"><defs><style>.cls-1{fill:#ff8a12;}.cls-2{fill:#1395ba;}</style></defs><title>457Ресурс 1</title><g id="Слой_2" data-name="Слой 2"><g id="Слой_1-2" data-name="Слой 1"><path class="cls-1" d="M99,5.33A18.39,18.39,0,0,0,85.38,0a18.19,18.19,0,0,0-18.9,17.46q0,.72,0,1.43V196.06A16.53,16.53,0,0,1,50,212.59h0q-7,0-14.76-9t-15.35-9A19.91,19.91,0,0,0,6,200a17.21,17.21,0,0,0-6,13.17,21.24,21.24,0,0,0,2.83,9.92,49.87,49.87,0,0,0,19.84,20A54.35,54.35,0,0,0,50,250.38,52.36,52.36,0,0,0,88.39,234.5a52.37,52.37,0,0,0,15.88-38.44V18.91A18.39,18.39,0,0,0,99,5.33Z"/><path class="cls-2" d="M335.64,185.73,298,16.22q-2.1-9.15-9.83-9.16-6.16,0-9.31,7.31l-47.56,111-47.57-111q-3.15-7.3-9.31-7.3-7.74,0-9.7,9.16L127,185.73a7.4,7.4,0,0,0-.39,2.35q0,9.16,9.79,9.16,7.44,0,9-7.47L177.06,47.35l44.79,104.5q3.14,7.46,9.42,7.46t9.41-7.46l44.7-104.28L317,189.8q1.58,7.44,9.07,7.44,9.85,0,9.85-9.16a10.77,10.77,0,0,0-.26-2.35h0Z"/><path class="cls-2" d="M174.26,254.31a32,32,0,0,0-12.87-8.66,41.41,41.41,0,0,0-15.3-3.07,39.95,39.95,0,0,0,0,79.89,41.56,41.56,0,0,0,15.3-3.06,31.38,31.38,0,0,0,12.87-8.55,6.49,6.49,0,0,0,1.73-4,5.69,5.69,0,0,0-1.77-4.08,5.52,5.52,0,0,0-4-1.81q-.79,0-8.53,5.06a28.28,28.28,0,0,1-15.6,5.06A28.57,28.57,0,0,1,146,254a28.24,28.24,0,0,1,15.68,5.1q7.74,5.1,8.45,5.1a5.69,5.69,0,0,0,4.09-9.85h0Z"/><path class="cls-2" d="M213.93,311.08a11.53,11.53,0,0,1-11.38-11.47V214.09q0-5.73-5.65-5.73t-5.73,5.73v85.52a22.92,22.92,0,0,0,22.76,22.85q5.73,0,5.73-5.73t-5.73-5.65Z"/><path class="cls-2" d="M291.74,248.23q0-5.66-5.65-5.66t-5.73,5.66V294a17.11,17.11,0,0,1-34.22,0V248.23q0-5.66-5.65-5.66t-5.73,5.66v45.72a28.49,28.49,0,0,0,57,0V248.23Z"/><path class="cls-2" d="M349.52,278.67q-6.92-6.43-18.33-7.53-9-.87-9-8.59a8.32,8.32,0,0,1,2.52-6,8.19,8.19,0,0,1,6.06-2.56,8.61,8.61,0,0,1,6.85,3.61q2.91,3.61,5.27,3.61a6,6,0,0,0,4.17-1.65,5.25,5.25,0,0,0,1.81-4,6.59,6.59,0,0,0-.86-3q-5.26-9.93-17.19-9.93a20,20,0,0,0-20,20,18.46,18.46,0,0,0,5.82,14.15,22.69,22.69,0,0,0,14.23,5.82q14.63,1.26,14.63,14.28a13.8,13.8,0,0,1-4.16,10.08,13.67,13.67,0,0,1-10.07,4.2,12.61,12.61,0,0,1-9.2-3.37,62,62,0,0,1-4.4-6.2q-2.28-3.37-5-3.37a6.09,6.09,0,0,0-4.17,1.61,5.09,5.09,0,0,0-1.81,4,6.55,6.55,0,0,0,.47,2.28,24.24,24.24,0,0,0,9.38,11.89,25.38,25.38,0,0,0,14.64,4.59,25.79,25.79,0,0,0,25.67-25.67q0-11.22-7.39-18.12h0Z"/><path class="cls-2" d="M420.58,305.43q-1.65,0-5.2,2.83a11.72,11.72,0,0,1-7.4,2.82,10.93,10.93,0,0,1-8.07-3.38,11.1,11.1,0,0,1-3.34-8.09V254H408q5.73,0,5.73-5.73T408,242.57H396.58V214.09q0-5.73-5.69-5.73t-5.69,5.73v28.49H373.82q-5.73,0-5.73,5.65t5.73,5.73H385.2V299.6A22.92,22.92,0,0,0,408,322.47a24.65,24.65,0,0,0,11.14-2.35q6-3,6-8.79t-4.56-5.89h0Z"/><path class="cls-2" d="M509.86,295.55h0a6,6,0,0,0-4.16-1.65q-2.43,0-4.67,2.94t-3.26,4.43q-8,9.81-21.5,9.81a27.2,27.2,0,0,1-21.35-9.65l53.84-31.12a5,5,0,0,0,2.82-4.64q0-6.05-8.71-12.89a49,49,0,0,0-14.28-8,38.08,38.08,0,0,0-12.32-2.2,39.95,39.95,0,0,0,0,79.89A40.51,40.51,0,0,0,496.41,317a35.71,35.71,0,0,0,14.48-14.48,7.05,7.05,0,0,0,.78-3A5.22,5.22,0,0,0,509.86,295.55Zm-62.15-13.06a28.48,28.48,0,0,1,49.9-18.83l-48.42,28A28.39,28.39,0,0,1,447.71,282.48Z"/><path class="cls-2" d="M573.16,254a20.15,20.15,0,0,0-8.28-8.27,23.22,23.22,0,0,0-11.5-3.15,22,22,0,0,0-11.85,3.37,5.22,5.22,0,0,0-5.26-3.37q-5.73,0-5.73,5.66v68.5q0,5.74,5.69,5.74t5.69-5.74V265.35A11.47,11.47,0,0,1,553.33,254a11.14,11.14,0,0,1,8.73,4.35q3.7,4.36,6,4.36a6,6,0,0,0,4.13-1.65,5.12,5.12,0,0,0,1.85-3.94,7.05,7.05,0,0,0-.86-3.07h0Z"/></g></g></svg>